<svg width="171" height="60" viewBox="0 0 171 60" fill="none" xmlns="http://www.w3.org/2000/svg">
<path d="M95 30H85L77.5 52.5L62.5 7.5L55 30H45" stroke="#33D072" stroke-width="4" stroke-linecap="round" stroke-linejoin="round"/>
<path d="M1.32 18.52C1.32 17.9733 1.50667 17.5533 1.88 17.26C2.25333 16.9667 2.78667 16.82 3.48 16.82V23H10.2V18.52C10.2 17.96 10.38 17.54 10.74 17.26C11.1133 16.9667 11.6467 16.82 12.34 16.82V29.48C12.34 30.0267 12.1533 30.4467 11.78 30.74C11.42 31.0333 10.8933 31.18 10.2 31.18V24.88H3.48V29.48C3.48 30.0267 3.29333 30.4467 2.92 30.74C2.54667 31.0333 2.01333 31.18 1.32 31.18V18.52ZM15.6841 35.16C15.2441 35.16 14.8974 35.02 14.6441 34.74C14.3907 34.46 14.2574 34.0467 14.2441 33.5C14.6041 33.5667 14.9107 33.6 15.1641 33.6C15.7241 33.6 16.1707 33.44 16.5041 33.12C16.8374 32.8 17.1907 32.22 17.5641 31.38L17.9241 30.54L14.0241 20.98C14.1174 20.94 14.2507 20.9067 14.4241 20.88C14.5974 20.84 14.7507 20.82 14.8841 20.82C15.2041 20.8333 15.4907 20.9133 15.7441 21.06C16.0107 21.2067 16.1907 21.4067 16.2841 21.66L18.7841 28.08L18.4841 28.94L18.6241 29L21.5041 21.66C21.5974 21.3933 21.7707 21.1867 22.0241 21.04C22.2774 20.8933 22.5641 20.82 22.8841 20.82C23.0174 20.82 23.1707 20.84 23.3441 20.88C23.5307 20.9067 23.6641 20.94 23.7441 20.98L19.2641 31.96C18.8241 33.04 18.3241 33.84 17.7641 34.36C17.2174 34.8933 16.5241 35.16 15.6841 35.16ZM28.6998 35.18C27.9665 35.18 27.2998 35.0667 26.6998 34.84C26.0998 34.6267 25.6265 34.3267 25.2798 33.94C24.9332 33.5667 24.7598 33.1533 24.7598 32.7C24.7598 31.98 25.2465 31.62 26.2198 31.62C26.2465 32.22 26.4732 32.6933 26.8998 33.04C27.3398 33.3867 27.9398 33.56 28.6998 33.56C30.3132 33.56 31.1198 32.7667 31.1198 31.18V30.18C31.3065 30.02 31.4465 29.8733 31.5398 29.74L31.4798 29.64C31.1065 30.0267 30.6265 30.3467 30.0398 30.6C29.4665 30.8533 28.8998 30.98 28.3398 30.98C27.5932 30.98 26.9198 30.8333 26.3198 30.54C25.7332 30.2467 25.2732 29.84 24.9398 29.32C24.6065 28.7867 24.4398 28.1733 24.4398 27.48V24.34C24.4398 23.66 24.6132 23.0533 24.9598 22.52C25.3065 21.9867 25.7732 21.5733 26.3598 21.28C26.9465 20.9733 27.5932 20.82 28.2998 20.82C29.0198 20.82 29.6398 20.9733 30.1598 21.28C30.6932 21.5867 31.1665 22.0067 31.5798 22.54L31.6598 22.46C31.5398 22.2733 31.4065 22.1 31.2598 21.94C31.2598 21.1933 31.8865 20.82 33.1398 20.82V30.94C33.1398 31.7667 32.9465 32.5 32.5598 33.14C32.1865 33.7933 31.6598 34.2933 30.9798 34.64C30.3132 35 29.5532 35.18 28.6998 35.18ZM28.7598 29.26C29.4398 29.26 30.0065 29.0867 30.4598 28.74C30.9265 28.38 31.1598 27.9533 31.1598 27.46V24.34C31.1598 23.8333 30.9332 23.4067 30.4798 23.06C30.0265 22.7133 29.4665 22.54 28.7998 22.54C28.0398 22.54 27.4532 22.7067 27.0398 23.04C26.6398 23.3733 26.4398 23.84 26.4398 24.44V27.36C26.4398 27.9467 26.6398 28.4133 27.0398 28.76C27.4532 29.0933 28.0265 29.26 28.7598 29.26ZM37.1936 19.5C36.7936 19.5 36.4536 19.3733 36.1736 19.12C35.8936 18.8667 35.7536 18.5467 35.7536 18.16C35.7536 17.7733 35.8936 17.4533 36.1736 17.2C36.4536 16.9467 36.7936 16.82 37.1936 16.82C37.5936 16.82 37.9269 16.9467 38.1936 17.2C38.4736 17.4533 38.6136 17.7733 38.6136 18.16C38.6136 18.5467 38.4736 18.8667 38.1936 19.12C37.9269 19.3733 37.5936 19.5 37.1936 19.5ZM36.1936 22.18C36.1936 21.7 36.3536 21.3533 36.6736 21.14C37.0069 20.9267 37.5069 20.82 38.1736 20.82V29.82C38.1736 30.2867 38.0069 30.6333 37.6736 30.86C37.3536 31.0733 36.8603 31.18 36.1936 31.18V22.18Z" fill="white"/>
<path d="M105.42 35.18C104.593 35.18 103.853 35.0333 103.2 34.74C102.56 34.4333 102.06 34.0133 101.7 33.48C101.34 32.9333 101.16 32.3133 101.16 31.62V28.52C101.16 27.8 101.333 27.16 101.68 26.6C102.04 26.04 102.54 25.6067 103.18 25.3C103.833 24.98 104.573 24.82 105.4 24.82C106.173 24.82 106.86 24.9333 107.46 25.16C108.06 25.3733 108.527 25.68 108.86 26.08C109.207 26.48 109.38 26.94 109.38 27.46C109.38 27.8333 109.227 28.1333 108.92 28.36C108.613 28.5733 108.227 28.6667 107.76 28.64C107.76 28.0267 107.54 27.5267 107.1 27.14C106.673 26.7533 106.12 26.56 105.44 26.56C104.76 26.56 104.207 26.7467 103.78 27.12C103.353 27.4933 103.14 27.98 103.14 28.58V31.5C103.14 32.0733 103.353 32.54 103.78 32.9C104.22 33.26 104.787 33.44 105.48 33.44C106.16 33.44 106.713 33.2467 107.14 32.86C107.58 32.4733 107.8 31.98 107.8 31.38C108.28 31.34 108.673 31.4267 108.98 31.64C109.287 31.8533 109.44 32.1467 109.44 32.52C109.44 33.04 109.267 33.5 108.92 33.9C108.587 34.3 108.113 34.6133 107.5 34.84C106.887 35.0667 106.193 35.18 105.42 35.18ZM111.593 22.44C111.593 21.92 111.76 21.52 112.093 21.24C112.44 20.96 112.94 20.82 113.593 20.82V26.06C113.447 26.2067 113.293 26.4 113.133 26.64L113.233 26.72C113.647 26.1467 114.16 25.6867 114.773 25.34C115.387 24.9933 116.06 24.82 116.793 24.82C117.86 24.82 118.707 25.1467 119.333 25.8C119.96 26.44 120.273 27.2667 120.273 28.28V33.82C120.273 34.2867 120.107 34.6333 119.773 34.86C119.453 35.0733 118.96 35.18 118.293 35.18V28.52C118.293 27.9333 118.12 27.46 117.773 27.1C117.427 26.74 116.92 26.56 116.253 26.56C115.787 26.56 115.347 26.6667 114.933 26.88C114.52 27.08 114.193 27.3533 113.953 27.7C113.713 28.0467 113.593 28.4267 113.593 28.84V33.82C113.593 34.2867 113.427 34.6333 113.093 34.86C112.76 35.0733 112.26 35.18 111.593 35.18V22.44ZM126.866 35.18C126.053 35.18 125.32 35.02 124.666 34.7C124.013 34.38 123.5 33.94 123.126 33.38C122.753 32.82 122.566 32.1933 122.566 31.5V28.64C122.566 27.92 122.76 27.2733 123.146 26.7C123.546 26.1133 124.073 25.6533 124.726 25.32C125.38 24.9867 126.093 24.82 126.866 24.82C127.64 24.82 128.346 24.98 128.986 25.3C129.626 25.62 130.133 26.0667 130.506 26.64C130.88 27.2 131.066 27.84 131.066 28.56V29.8C131.066 30.0267 130.973 30.2267 130.786 30.4C130.613 30.56 130.4 30.64 130.146 30.64H124.506V31.4C124.506 32.04 124.706 32.56 125.106 32.96C125.506 33.3467 126.093 33.54 126.866 33.54C127.64 33.54 128.22 33.3733 128.606 33.04C129.006 32.6933 129.206 32.24 129.206 31.68C129.686 31.64 130.08 31.72 130.386 31.92C130.693 32.1067 130.846 32.3933 130.846 32.78C130.846 33.1933 130.66 33.5867 130.286 33.96C129.926 34.32 129.44 34.6133 128.826 34.84C128.226 35.0667 127.573 35.18 126.866 35.18ZM129.246 29.14V28.56C129.246 27.9333 129.026 27.4267 128.586 27.04C128.146 26.64 127.573 26.44 126.866 26.44C126.16 26.44 125.586 26.64 125.146 27.04C124.72 27.4267 124.506 27.9333 124.506 28.56V29.14H129.246ZM137.354 35.18C136.527 35.18 135.787 35.0333 135.134 34.74C134.494 34.4333 133.994 34.0133 133.634 33.48C133.274 32.9333 133.094 32.3133 133.094 31.62V28.52C133.094 27.8 133.267 27.16 133.614 26.6C133.974 26.04 134.474 25.6067 135.114 25.3C135.767 24.98 136.507 24.82 137.334 24.82C138.107 24.82 138.794 24.9333 139.394 25.16C139.994 25.3733 140.46 25.68 140.794 26.08C141.14 26.48 141.314 26.94 141.314 27.46C141.314 27.8333 141.16 28.1333 140.854 28.36C140.547 28.5733 140.16 28.6667 139.694 28.64C139.694 28.0267 139.474 27.5267 139.034 27.14C138.607 26.7533 138.054 26.56 137.374 26.56C136.694 26.56 136.14 26.7467 135.714 27.12C135.287 27.4933 135.074 27.98 135.074 28.58V31.5C135.074 32.0733 135.287 32.54 135.714 32.9C136.154 33.26 136.72 33.44 137.414 33.44C138.094 33.44 138.647 33.2467 139.074 32.86C139.514 32.4733 139.734 31.98 139.734 31.38C140.214 31.34 140.607 31.4267 140.914 31.64C141.22 31.8533 141.374 32.1467 141.374 32.52C141.374 33.04 141.2 33.5 140.854 33.9C140.52 34.3 140.047 34.6133 139.434 34.84C138.82 35.0667 138.127 35.18 137.354 35.18ZM152.087 34.64C151.834 35 151.48 35.18 151.027 35.18C150.8 35.18 150.6 35.1333 150.427 35.04C150.254 34.9467 150.094 34.7867 149.947 34.56L146.947 29.94L145.507 31.24V33.84C145.507 34.7333 144.847 35.18 143.527 35.18V22.42C143.527 21.3533 144.194 20.82 145.527 20.82L145.507 29.14L150.267 24.84C150.747 25.2533 150.987 25.6 150.987 25.88C150.987 26.0667 150.94 26.2267 150.847 26.36C150.754 26.48 150.587 26.6533 150.347 26.88L148.167 28.86L152.087 34.64ZM157.55 35.18C156.737 35.18 156.003 35.02 155.35 34.7C154.697 34.38 154.183 33.94 153.81 33.38C153.437 32.82 153.25 32.1933 153.25 31.5V28.64C153.25 27.92 153.443 27.2733 153.83 26.7C154.23 26.1133 154.757 25.6533 155.41 25.32C156.063 24.9867 156.777 24.82 157.55 24.82C158.323 24.82 159.03 24.98 159.67 25.3C160.31 25.62 160.817 26.0667 161.19 26.64C161.563 27.2 161.75 27.84 161.75 28.56V29.8C161.75 30.0267 161.657 30.2267 161.47 30.4C161.297 30.56 161.083 30.64 160.83 30.64H155.19V31.4C155.19 32.04 155.39 32.56 155.79 32.96C156.19 33.3467 156.777 33.54 157.55 33.54C158.323 33.54 158.903 33.3733 159.29 33.04C159.69 32.6933 159.89 32.24 159.89 31.68C160.37 31.64 160.763 31.72 161.07 31.92C161.377 32.1067 161.53 32.3933 161.53 32.78C161.53 33.1933 161.343 33.5867 160.97 33.96C160.61 34.32 160.123 34.6133 159.51 34.84C158.91 35.0667 158.257 35.18 157.55 35.18ZM159.93 29.14V28.56C159.93 27.9333 159.71 27.4267 159.27 27.04C158.83 26.64 158.257 26.44 157.55 26.44C156.843 26.44 156.27 26.64 155.83 27.04C155.403 27.4267 155.19 27.9333 155.19 28.56V29.14H159.93ZM168.557 26.56C167.797 26.56 167.171 26.78 166.677 27.22C166.184 27.66 165.937 28.2 165.937 28.84V33.82C165.937 34.3 165.771 34.6467 165.437 34.86C165.117 35.0733 164.617 35.18 163.937 35.18V26.44C163.937 25.36 164.577 24.82 165.857 24.82V26.02C165.684 26.22 165.531 26.4267 165.397 26.64L165.497 26.72C166.337 25.4533 167.397 24.82 168.677 24.82C169.184 24.82 169.571 24.9467 169.837 25.2C170.117 25.4533 170.257 25.7667 170.257 26.14C170.257 26.42 170.184 26.66 170.037 26.86C169.664 26.66 169.171 26.56 168.557 26.56Z" fill="white"/>
</svg>
