<svg width="393" height="128" viewBox="0 0 393 128" fill="none" xmlns="http://www.w3.org/2000/svg">
<path d="M213.333 64H192L176 112L144 16L128 64H106.667" stroke="#33D072" stroke-width="4" stroke-linecap="round" stroke-linejoin="round"/>
<path d="M3.168 39.048C3.168 37.736 3.616 36.728 4.512 36.024C5.408 35.32 6.688 34.968 8.352 34.968V49.8H24.48V39.048C24.48 37.704 24.912 36.696 25.776 36.024C26.672 35.32 27.952 34.968 29.616 34.968V65.352C29.616 66.664 29.168 67.672 28.272 68.376C27.408 69.08 26.144 69.432 24.48 69.432V54.312H8.352V65.352C8.352 66.664 7.904 67.672 7.008 68.376C6.112 69.08 4.832 69.432 3.168 69.432V39.048ZM37.6418 78.984C36.5858 78.984 35.7538 78.648 35.1458 77.976C34.5378 77.304 34.2178 76.312 34.1858 75C35.0498 75.16 35.7858 75.24 36.3938 75.24C37.7378 75.24 38.8098 74.856 39.6098 74.088C40.4098 73.32 41.2578 71.928 42.1538 69.912L43.0178 67.896L33.6578 44.952C33.8818 44.856 34.2018 44.776 34.6178 44.712C35.0338 44.616 35.4018 44.568 35.7218 44.568C36.4898 44.6 37.1778 44.792 37.7858 45.144C38.4258 45.496 38.8578 45.976 39.0818 46.584L45.0818 61.992L44.3618 64.056L44.6978 64.2L51.6098 46.584C51.8338 45.944 52.2498 45.448 52.8578 45.096C53.4658 44.744 54.1538 44.568 54.9218 44.568C55.2418 44.568 55.6098 44.616 56.0258 44.712C56.4738 44.776 56.7938 44.856 56.9858 44.952L46.2338 71.304C45.1778 73.896 43.9778 75.816 42.6338 77.064C41.3218 78.344 39.6578 78.984 37.6418 78.984ZM68.8796 79.032C67.1196 79.032 65.5196 78.76 64.0796 78.216C62.6396 77.704 61.5036 76.984 60.6716 76.056C59.8396 75.16 59.4236 74.168 59.4236 73.08C59.4236 71.352 60.5916 70.488 62.9276 70.488C62.9916 71.928 63.5356 73.064 64.5596 73.896C65.6156 74.728 67.0556 75.144 68.8796 75.144C72.7516 75.144 74.6876 73.24 74.6876 69.432V67.032C75.1356 66.648 75.4716 66.296 75.6956 65.976L75.5516 65.736C74.6556 66.664 73.5036 67.432 72.0956 68.04C70.7196 68.648 69.3596 68.952 68.0156 68.952C66.2236 68.952 64.6076 68.6 63.1676 67.896C61.7596 67.192 60.6556 66.216 59.8556 64.968C59.0556 63.688 58.6556 62.216 58.6556 60.552V53.016C58.6556 51.384 59.0716 49.928 59.9036 48.648C60.7356 47.368 61.8556 46.376 63.2636 45.672C64.6716 44.936 66.2236 44.568 67.9196 44.568C69.6476 44.568 71.1356 44.936 72.3836 45.672C73.6636 46.408 74.7996 47.416 75.7916 48.696L75.9836 48.504C75.6956 48.056 75.3756 47.64 75.0236 47.256C75.0236 45.464 76.5276 44.568 79.5356 44.568V68.856C79.5356 70.84 79.0716 72.6 78.1436 74.136C77.2476 75.704 75.9836 76.904 74.3516 77.736C72.7516 78.6 70.9276 79.032 68.8796 79.032ZM69.0236 64.824C70.6556 64.824 72.0156 64.408 73.1036 63.576C74.2236 62.712 74.7836 61.688 74.7836 60.504V53.016C74.7836 51.8 74.2396 50.776 73.1516 49.944C72.0636 49.112 70.7196 48.696 69.1196 48.696C67.2956 48.696 65.8876 49.096 64.8956 49.896C63.9356 50.696 63.4556 51.816 63.4556 53.256V60.264C63.4556 61.672 63.9356 62.792 64.8956 63.624C65.8876 64.424 67.2636 64.824 69.0236 64.824ZM89.2646 41.4C88.3046 41.4 87.4886 41.096 86.8166 40.488C86.1446 39.88 85.8086 39.112 85.8086 38.184C85.8086 37.256 86.1446 36.488 86.8166 35.88C87.4886 35.272 88.3046 34.968 89.2646 34.968C90.2246 34.968 91.0246 35.272 91.6646 35.88C92.3366 36.488 92.6726 37.256 92.6726 38.184C92.6726 39.112 92.3366 39.88 91.6646 40.488C91.0246 41.096 90.2246 41.4 89.2646 41.4ZM86.8646 47.832C86.8646 46.68 87.2486 45.848 88.0166 45.336C88.8166 44.824 90.0166 44.568 91.6166 44.568V66.168C91.6166 67.288 91.2166 68.12 90.4166 68.664C89.6486 69.176 88.4646 69.432 86.8646 69.432V47.832Z" fill="white"/>
<path d="M235.008 75.432C233.024 75.432 231.248 75.08 229.68 74.376C228.144 73.64 226.944 72.632 226.08 71.352C225.216 70.04 224.784 68.552 224.784 66.888V59.448C224.784 57.72 225.2 56.184 226.032 54.84C226.896 53.496 228.096 52.456 229.632 51.72C231.2 50.952 232.976 50.568 234.96 50.568C236.816 50.568 238.464 50.84 239.904 51.384C241.344 51.896 242.464 52.632 243.264 53.592C244.096 54.552 244.512 55.656 244.512 56.904C244.512 57.8 244.144 58.52 243.408 59.064C242.672 59.576 241.744 59.8 240.624 59.736C240.624 58.264 240.096 57.064 239.04 56.136C238.016 55.208 236.688 54.744 235.056 54.744C233.424 54.744 232.096 55.192 231.072 56.088C230.048 56.984 229.536 58.152 229.536 59.592V66.6C229.536 67.976 230.048 69.096 231.072 69.96C232.128 70.824 233.488 71.256 235.152 71.256C236.784 71.256 238.112 70.792 239.136 69.864C240.192 68.936 240.72 67.752 240.72 66.312C241.872 66.216 242.816 66.424 243.552 66.936C244.288 67.448 244.656 68.152 244.656 69.048C244.656 70.296 244.24 71.4 243.408 72.36C242.608 73.32 241.472 74.072 240 74.616C238.528 75.16 236.864 75.432 235.008 75.432ZM249.824 44.856C249.824 43.608 250.224 42.648 251.024 41.976C251.856 41.304 253.056 40.968 254.624 40.968V53.544C254.272 53.896 253.904 54.36 253.52 54.936L253.76 55.128C254.752 53.752 255.984 52.648 257.456 51.816C258.928 50.984 260.544 50.568 262.304 50.568C264.864 50.568 266.896 51.352 268.4 52.92C269.904 54.456 270.656 56.44 270.656 58.872V72.168C270.656 73.288 270.256 74.12 269.456 74.664C268.688 75.176 267.504 75.432 265.904 75.432V59.448C265.904 58.04 265.488 56.904 264.656 56.04C263.824 55.176 262.608 54.744 261.008 54.744C259.888 54.744 258.832 55 257.84 55.512C256.848 55.992 256.064 56.648 255.488 57.48C254.912 58.312 254.624 59.224 254.624 60.216V72.168C254.624 73.288 254.224 74.12 253.424 74.664C252.624 75.176 251.424 75.432 249.824 75.432V44.856ZM286.479 75.432C284.527 75.432 282.767 75.048 281.199 74.28C279.631 73.512 278.399 72.456 277.503 71.112C276.607 69.768 276.159 68.264 276.159 66.6V59.736C276.159 58.008 276.623 56.456 277.551 55.08C278.511 53.672 279.775 52.568 281.343 51.768C282.911 50.968 284.623 50.568 286.479 50.568C288.335 50.568 290.031 50.952 291.567 51.72C293.103 52.488 294.319 53.56 295.215 54.936C296.111 56.28 296.559 57.816 296.559 59.544V62.52C296.559 63.064 296.335 63.544 295.887 63.96C295.471 64.344 294.959 64.536 294.351 64.536H280.815V66.36C280.815 67.896 281.295 69.144 282.255 70.104C283.215 71.032 284.623 71.496 286.479 71.496C288.335 71.496 289.727 71.096 290.655 70.296C291.615 69.464 292.095 68.376 292.095 67.032C293.247 66.936 294.191 67.128 294.927 67.608C295.663 68.056 296.031 68.744 296.031 69.672C296.031 70.664 295.583 71.608 294.687 72.504C293.823 73.368 292.655 74.072 291.183 74.616C289.743 75.16 288.175 75.432 286.479 75.432ZM292.191 60.936V59.544C292.191 58.04 291.663 56.824 290.607 55.896C289.551 54.936 288.175 54.456 286.479 54.456C284.783 54.456 283.407 54.936 282.351 55.896C281.327 56.824 280.815 58.04 280.815 59.544V60.936H292.191ZM311.649 75.432C309.665 75.432 307.889 75.08 306.321 74.376C304.785 73.64 303.585 72.632 302.721 71.352C301.857 70.04 301.425 68.552 301.425 66.888V59.448C301.425 57.72 301.841 56.184 302.673 54.84C303.537 53.496 304.737 52.456 306.273 51.72C307.841 50.952 309.617 50.568 311.601 50.568C313.457 50.568 315.105 50.84 316.545 51.384C317.985 51.896 319.105 52.632 319.905 53.592C320.737 54.552 321.153 55.656 321.153 56.904C321.153 57.8 320.785 58.52 320.049 59.064C319.313 59.576 318.385 59.8 317.265 59.736C317.265 58.264 316.737 57.064 315.681 56.136C314.657 55.208 313.329 54.744 311.697 54.744C310.065 54.744 308.737 55.192 307.713 56.088C306.689 56.984 306.177 58.152 306.177 59.592V66.6C306.177 67.976 306.689 69.096 307.713 69.96C308.769 70.824 310.129 71.256 311.793 71.256C313.425 71.256 314.753 70.792 315.777 69.864C316.833 68.936 317.361 67.752 317.361 66.312C318.513 66.216 319.457 66.424 320.193 66.936C320.929 67.448 321.297 68.152 321.297 69.048C321.297 70.296 320.881 71.4 320.049 72.36C319.249 73.32 318.113 74.072 316.641 74.616C315.169 75.16 313.505 75.432 311.649 75.432ZM347.009 74.136C346.401 75 345.553 75.432 344.465 75.432C343.921 75.432 343.441 75.32 343.025 75.096C342.609 74.872 342.225 74.488 341.873 73.944L334.673 62.856L331.217 65.976V72.216C331.217 74.36 329.633 75.432 326.465 75.432V44.808C326.465 42.248 328.065 40.968 331.265 40.968L331.217 60.936L342.641 50.616C343.793 51.608 344.369 52.44 344.369 53.112C344.369 53.56 344.257 53.944 344.033 54.264C343.809 54.552 343.409 54.968 342.833 55.512L337.601 60.264L347.009 74.136ZM360.12 75.432C358.168 75.432 356.408 75.048 354.84 74.28C353.272 73.512 352.04 72.456 351.144 71.112C350.248 69.768 349.8 68.264 349.8 66.6V59.736C349.8 58.008 350.264 56.456 351.192 55.08C352.152 53.672 353.416 52.568 354.984 51.768C356.552 50.968 358.264 50.568 360.12 50.568C361.976 50.568 363.672 50.952 365.208 51.72C366.744 52.488 367.96 53.56 368.856 54.936C369.752 56.28 370.2 57.816 370.2 59.544V62.52C370.2 63.064 369.976 63.544 369.528 63.96C369.112 64.344 368.6 64.536 367.992 64.536H354.456V66.36C354.456 67.896 354.936 69.144 355.896 70.104C356.856 71.032 358.264 71.496 360.12 71.496C361.976 71.496 363.368 71.096 364.296 70.296C365.256 69.464 365.736 68.376 365.736 67.032C366.888 66.936 367.832 67.128 368.568 67.608C369.304 68.056 369.672 68.744 369.672 69.672C369.672 70.664 369.224 71.608 368.328 72.504C367.464 73.368 366.296 74.072 364.824 74.616C363.384 75.16 361.816 75.432 360.12 75.432ZM365.832 60.936V59.544C365.832 58.04 365.304 56.824 364.248 55.896C363.192 54.936 361.816 54.456 360.12 54.456C358.424 54.456 357.048 54.936 355.992 55.896C354.968 56.824 354.456 58.04 354.456 59.544V60.936H365.832ZM386.537 54.744C384.713 54.744 383.209 55.272 382.025 56.328C380.841 57.384 380.249 58.68 380.249 60.216V72.168C380.249 73.32 379.849 74.152 379.049 74.664C378.281 75.176 377.081 75.432 375.449 75.432V54.456C375.449 51.864 376.985 50.568 380.057 50.568V53.448C379.641 53.928 379.273 54.424 378.953 54.936L379.193 55.128C381.209 52.088 383.753 50.568 386.825 50.568C388.041 50.568 388.969 50.872 389.609 51.48C390.281 52.088 390.617 52.84 390.617 53.736C390.617 54.408 390.441 54.984 390.089 55.464C389.193 54.984 388.009 54.744 386.537 54.744Z" fill="white"/>
</svg>
