<svg width="520" height="172" viewBox="0 0 520 172" fill="none" xmlns="http://www.w3.org/2000/svg">
<path d="M282.667 86H254L232.5 150.5L189.5 21.5L168 86H139.333" stroke="#33D072" stroke-width="4" stroke-linecap="round" stroke-linejoin="round"/>
<path d="M4.224 50.064C4.224 48.3147 4.82133 46.9707 6.016 46.032C7.21067 45.0933 8.91733 44.624 11.136 44.624V64.4H32.64V50.064C32.64 48.272 33.216 46.928 34.368 46.032C35.5627 45.0933 37.2693 44.624 39.488 44.624V85.136C39.488 86.8853 38.8907 88.2293 37.696 89.168C36.544 90.1067 34.8587 90.576 32.64 90.576V70.416H11.136V85.136C11.136 86.8853 10.5387 88.2293 9.344 89.168C8.14933 90.1067 6.44267 90.576 4.224 90.576V50.064ZM50.189 103.312C48.781 103.312 47.6717 102.864 46.861 101.968C46.0503 101.072 45.6237 99.7493 45.581 98C46.733 98.2133 47.7143 98.32 48.525 98.32C50.317 98.32 51.7463 97.808 52.813 96.784C53.8797 95.76 55.0103 93.904 56.205 91.216L57.357 88.528L44.877 57.936C45.1757 57.808 45.6023 57.7013 46.157 57.616C46.7117 57.488 47.2023 57.424 47.629 57.424C48.653 57.4667 49.5703 57.7227 50.381 58.192C51.2343 58.6613 51.8103 59.3013 52.109 60.112L60.109 80.656L59.149 83.408L59.597 83.6L68.813 60.112C69.1117 59.2587 69.6663 58.5973 70.477 58.128C71.2877 57.6587 72.205 57.424 73.229 57.424C73.6557 57.424 74.1463 57.488 74.701 57.616C75.2983 57.7013 75.725 57.808 75.981 57.936L61.645 93.072C60.237 96.528 58.637 99.088 56.845 100.752C55.0957 102.459 52.877 103.312 50.189 103.312ZM91.8395 103.376C89.4928 103.376 87.3595 103.013 85.4395 102.288C83.5195 101.605 82.0048 100.645 80.8955 99.408C79.7862 98.2133 79.2315 96.8907 79.2315 95.44C79.2315 93.136 80.7888 91.984 83.9035 91.984C83.9888 93.904 84.7142 95.4187 86.0795 96.528C87.4875 97.6373 89.4075 98.192 91.8395 98.192C97.0022 98.192 99.5835 95.6533 99.5835 90.576V87.376C100.181 86.864 100.629 86.3947 100.928 85.968L100.736 85.648C99.5408 86.8853 98.0048 87.9093 96.1275 88.72C94.2928 89.5307 92.4795 89.936 90.6875 89.936C88.2982 89.936 86.1435 89.4667 84.2235 88.528C82.3462 87.5893 80.8742 86.288 79.8075 84.624C78.7408 82.9173 78.2075 80.9547 78.2075 78.736V68.688C78.2075 66.512 78.7622 64.5707 79.8715 62.864C80.9808 61.1573 82.4742 59.8347 84.3515 58.896C86.2288 57.9147 88.2982 57.424 90.5595 57.424C92.8635 57.424 94.8475 57.9147 96.5115 58.896C98.2182 59.8773 99.7328 61.2213 101.056 62.928L101.312 62.672C100.928 62.0747 100.501 61.52 100.032 61.008C100.032 58.6187 102.037 57.424 106.048 57.424V89.808C106.048 92.4533 105.429 94.8 104.192 96.848C102.997 98.9387 101.312 100.539 99.1355 101.648C97.0022 102.8 94.5702 103.376 91.8395 103.376ZM92.0315 84.432C94.2075 84.432 96.0208 83.8773 97.4715 82.768C98.9648 81.616 99.7115 80.2507 99.7115 78.672V68.688C99.7115 67.0667 98.9862 65.7013 97.5355 64.592C96.0848 63.4827 94.2928 62.928 92.1595 62.928C89.7275 62.928 87.8502 63.4613 86.5275 64.528C85.2475 65.5947 84.6075 67.088 84.6075 69.008V78.352C84.6075 80.2293 85.2475 81.7227 86.5275 82.832C87.8502 83.8987 89.6848 84.432 92.0315 84.432ZM119.02 53.2C117.74 53.2 116.652 52.7947 115.756 51.984C114.86 51.1733 114.411 50.1493 114.411 48.912C114.411 47.6747 114.86 46.6507 115.756 45.84C116.652 45.0293 117.74 44.624 119.02 44.624C120.3 44.624 121.366 45.0293 122.22 45.84C123.116 46.6507 123.564 47.6747 123.564 48.912C123.564 50.1493 123.116 51.1733 122.22 51.984C121.366 52.7947 120.3 53.2 119.02 53.2ZM115.82 61.776C115.82 60.24 116.332 59.1307 117.356 58.448C118.422 57.7653 120.022 57.424 122.156 57.424V86.224C122.156 87.7173 121.622 88.8267 120.556 89.552C119.532 90.2347 117.953 90.576 115.82 90.576V61.776Z" fill="white"/>
<path d="M310.344 99.576C307.699 99.576 305.331 99.1067 303.24 98.168C301.192 97.1867 299.592 95.8427 298.44 94.136C297.288 92.3867 296.712 90.4027 296.712 88.184V78.264C296.712 75.96 297.267 73.912 298.376 72.12C299.528 70.328 301.128 68.9413 303.176 67.96C305.267 66.936 307.635 66.424 310.28 66.424C312.755 66.424 314.952 66.7867 316.872 67.512C318.792 68.1947 320.285 69.176 321.352 70.456C322.461 71.736 323.016 73.208 323.016 74.872C323.016 76.0667 322.525 77.0267 321.544 77.752C320.563 78.4347 319.325 78.7333 317.832 78.648C317.832 76.6853 317.128 75.0853 315.72 73.848C314.355 72.6107 312.584 71.992 310.408 71.992C308.232 71.992 306.461 72.5893 305.096 73.784C303.731 74.9787 303.048 76.536 303.048 78.456V87.8C303.048 89.6347 303.731 91.128 305.096 92.28C306.504 93.432 308.317 94.008 310.536 94.008C312.712 94.008 314.483 93.3893 315.848 92.152C317.256 90.9147 317.96 89.336 317.96 87.416C319.496 87.288 320.755 87.5653 321.736 88.248C322.717 88.9307 323.208 89.8693 323.208 91.064C323.208 92.728 322.653 94.2 321.544 95.48C320.477 96.76 318.963 97.7627 317 98.488C315.037 99.2133 312.819 99.576 310.344 99.576ZM330.099 58.808C330.099 57.144 330.632 55.864 331.699 54.968C332.808 54.072 334.408 53.624 336.499 53.624V70.392C336.03 70.8613 335.539 71.48 335.027 72.248L335.347 72.504C336.67 70.6693 338.312 69.1973 340.275 68.088C342.238 66.9787 344.392 66.424 346.739 66.424C350.152 66.424 352.862 67.4693 354.867 69.56C356.872 71.608 357.875 74.2533 357.875 77.496V95.224C357.875 96.7173 357.342 97.8267 356.275 98.552C355.251 99.2347 353.672 99.576 351.539 99.576V78.264C351.539 76.3867 350.984 74.872 349.875 73.72C348.766 72.568 347.144 71.992 345.011 71.992C343.518 71.992 342.11 72.3333 340.787 73.016C339.464 73.656 338.419 74.5307 337.651 75.64C336.883 76.7493 336.499 77.9653 336.499 79.288V95.224C336.499 96.7173 335.966 97.8267 334.899 98.552C333.832 99.2347 332.232 99.576 330.099 99.576V58.808ZM378.972 99.576C376.369 99.576 374.023 99.064 371.932 98.04C369.841 97.016 368.199 95.608 367.004 93.816C365.809 92.024 365.212 90.0187 365.212 87.8V78.648C365.212 76.344 365.831 74.2747 367.068 72.44C368.348 70.5627 370.033 69.0907 372.124 68.024C374.215 66.9573 376.497 66.424 378.972 66.424C381.447 66.424 383.708 66.936 385.756 67.96C387.804 68.984 389.425 70.4133 390.62 72.248C391.815 74.04 392.412 76.088 392.412 78.392V82.36C392.412 83.0853 392.113 83.7253 391.516 84.28C390.961 84.792 390.279 85.048 389.468 85.048H371.42V87.48C371.42 89.528 372.06 91.192 373.34 92.472C374.62 93.7093 376.497 94.328 378.972 94.328C381.447 94.328 383.303 93.7947 384.54 92.728C385.82 91.6187 386.46 90.168 386.46 88.376C387.996 88.248 389.255 88.504 390.236 89.144C391.217 89.7413 391.708 90.6587 391.708 91.896C391.708 93.2187 391.111 94.4773 389.916 95.672C388.764 96.824 387.207 97.7627 385.244 98.488C383.324 99.2133 381.233 99.576 378.972 99.576ZM386.588 80.248V78.392C386.588 76.3867 385.884 74.7653 384.476 73.528C383.068 72.248 381.233 71.608 378.972 71.608C376.711 71.608 374.876 72.248 373.468 73.528C372.103 74.7653 371.42 76.3867 371.42 78.392V80.248H386.588ZM412.532 99.576C409.886 99.576 407.518 99.1067 405.428 98.168C403.38 97.1867 401.78 95.8427 400.628 94.136C399.476 92.3867 398.9 90.4027 398.9 88.184V78.264C398.9 75.96 399.454 73.912 400.564 72.12C401.716 70.328 403.316 68.9413 405.364 67.96C407.454 66.936 409.822 66.424 412.468 66.424C414.942 66.424 417.14 66.7867 419.06 67.512C420.98 68.1947 422.473 69.176 423.54 70.456C424.649 71.736 425.204 73.208 425.204 74.872C425.204 76.0667 424.713 77.0267 423.732 77.752C422.75 78.4347 421.513 78.7333 420.02 78.648C420.02 76.6853 419.316 75.0853 417.908 73.848C416.542 72.6107 414.772 71.992 412.596 71.992C410.42 71.992 408.649 72.5893 407.284 73.784C405.918 74.9787 405.236 76.536 405.236 78.456V87.8C405.236 89.6347 405.918 91.128 407.284 92.28C408.692 93.432 410.505 94.008 412.724 94.008C414.9 94.008 416.67 93.3893 418.036 92.152C419.444 90.9147 420.148 89.336 420.148 87.416C421.684 87.288 422.942 87.5653 423.924 88.248C424.905 88.9307 425.396 89.8693 425.396 91.064C425.396 92.728 424.841 94.2 423.732 95.48C422.665 96.76 421.15 97.7627 419.188 98.488C417.225 99.2133 415.006 99.576 412.532 99.576ZM459.679 97.848C458.868 99 457.737 99.576 456.287 99.576C455.561 99.576 454.921 99.4267 454.367 99.128C453.812 98.8293 453.3 98.3173 452.831 97.592L443.231 82.808L438.623 86.968V95.288C438.623 98.1467 436.511 99.576 432.286 99.576V58.744C432.286 55.3307 434.42 53.624 438.687 53.624L438.623 80.248L453.855 66.488C455.391 67.8107 456.159 68.92 456.159 69.816C456.159 70.4133 456.009 70.9253 455.711 71.352C455.412 71.736 454.879 72.2907 454.111 73.016L447.135 79.352L459.679 97.848ZM477.16 99.576C474.557 99.576 472.21 99.064 470.12 98.04C468.029 97.016 466.386 95.608 465.192 93.816C463.997 92.024 463.4 90.0187 463.4 87.8V78.648C463.4 76.344 464.018 74.2747 465.256 72.44C466.536 70.5627 468.221 69.0907 470.312 68.024C472.402 66.9573 474.685 66.424 477.16 66.424C479.634 66.424 481.896 66.936 483.944 67.96C485.992 68.984 487.613 70.4133 488.808 72.248C490.002 74.04 490.6 76.088 490.6 78.392V82.36C490.6 83.0853 490.301 83.7253 489.704 84.28C489.149 84.792 488.466 85.048 487.656 85.048H469.608V87.48C469.608 89.528 470.248 91.192 471.528 92.472C472.808 93.7093 474.685 94.328 477.16 94.328C479.634 94.328 481.49 93.7947 482.728 92.728C484.008 91.6187 484.648 90.168 484.648 88.376C486.184 88.248 487.442 88.504 488.424 89.144C489.405 89.7413 489.896 90.6587 489.896 91.896C489.896 93.2187 489.298 94.4773 488.104 95.672C486.952 96.824 485.394 97.7627 483.432 98.488C481.512 99.2133 479.421 99.576 477.16 99.576ZM484.776 80.248V78.392C484.776 76.3867 484.072 74.7653 482.664 73.528C481.256 72.248 479.421 71.608 477.16 71.608C474.898 71.608 473.064 72.248 471.656 73.528C470.29 74.7653 469.608 76.3867 469.608 78.392V80.248H484.776ZM512.383 71.992C509.951 71.992 507.946 72.696 506.367 74.104C504.788 75.512 503.999 77.24 503.999 79.288V95.224C503.999 96.76 503.466 97.8693 502.399 98.552C501.375 99.2347 499.775 99.576 497.599 99.576V71.608C497.599 68.152 499.647 66.424 503.743 66.424V70.264C503.188 70.904 502.698 71.5653 502.271 72.248L502.591 72.504C505.279 68.4507 508.671 66.424 512.767 66.424C514.388 66.424 515.626 66.8293 516.479 67.64C517.375 68.4507 517.823 69.4533 517.823 70.648C517.823 71.544 517.588 72.312 517.119 72.952C515.924 72.312 514.346 71.992 512.383 71.992Z" fill="white"/>
</svg>
